<svg xmlns="http://www.w3.org/2000/svg" width="40" height="40" viewBox="0 0 40 40" fill="none">
    <path d="M28.75 0H11.25C5.0368 0 0 5.0368 0 11.25V28.75C0 34.9632 5.0368 40 11.25 40H28.75C34.9632 40 40 34.9632 40 28.75V11.25C40 5.0368 34.9632 0 28.75 0Z" fill="url(#paint0_linear_2454_2994)"/>
    <path fill-rule="evenodd" clip-rule="evenodd" d="M18.7488 13.3333C18.2555 11.4164 16.5154 10 14.4444 10C11.9898 10 10 11.9898 10 14.4444C10 16.8991 11.9898 18.8889 14.4444 18.8889C16.5154 18.8889 18.2555 17.4725 18.7488 15.5556H22.5926V19.2592H24.8148V15.5556H26.2963V19.2592H28.5185V15.5556H30V13.3333H18.7488ZM16.6667 14.4444C16.6667 15.6717 15.6717 16.6667 14.4444 16.6667C13.2172 16.6667 12.2222 15.6717 12.2222 14.4444C12.2222 13.2172 13.2172 12.2222 14.4444 12.2222C15.6717 12.2222 16.6667 13.2172 16.6667 14.4444Z" fill="white"/>
    <path fill-rule="evenodd" clip-rule="evenodd" d="M21.2512 26.6667C21.7445 28.5836 23.4846 30 25.5556 30C28.0102 30 30 28.0102 30 25.5556C30 23.1009 28.0102 21.1111 25.5556 21.1111C23.4846 21.1111 21.7445 22.5275 21.2512 24.4444H17.4074V20.7407H15.1852V24.4444H13.7037V20.7407H11.4815V24.4444H10V26.6667H21.2512ZM23.3333 25.5556C23.3333 24.3282 24.3282 23.3333 25.5556 23.3333C26.7828 23.3333 27.7778 24.3282 27.7778 25.5556C27.7778 26.7828 26.7828 27.7778 25.5556 27.7778C24.3282 27.7778 23.3333 26.7828 23.3333 25.5556Z" fill="white"/>
    <defs>
        <linearGradient id="paint0_linear_2454_2994" x1="40" y1="0" x2="9.53674e-06" y2="40" gradientUnits="userSpaceOnUse">
            <stop stop-color="#CDADFF"/>
            <stop offset="1" stop-color="#6432F1"/>
        </linearGradient>
    </defs>
</svg>